<svg width="13" height="13" viewBox="0 0 13 13" fill="current" xmlns="http://www.w3.org/2000/svg">
<path d="M6.94995 12.3759C5.27217 12.3759 3.85284 11.7953 2.69195 10.6339C1.53106 9.47259 0.950396 8.05326 0.949951 6.37592C0.949951 4.84259 1.44995 3.51192 2.44995 2.38392C3.44995 1.25592 4.72773 0.5977 6.28328 0.409256C6.42773 0.387034 6.55551 0.406589 6.66662 0.467923C6.77773 0.529256 6.86662 0.6097 6.93328 0.709256C6.99995 0.809256 7.03617 0.925923 7.04195 1.05926C7.04773 1.19259 7.00595 1.32037 6.91662 1.44259C6.72773 1.73148 6.58595 2.03703 6.49128 2.35926C6.39662 2.68148 6.34951 3.02037 6.34995 3.37592C6.34995 4.37592 6.69995 5.22592 7.39995 5.92592C8.09995 6.62592 8.94995 6.97592 9.94995 6.97592C10.2944 6.97592 10.6362 6.92592 10.9753 6.82592C11.3144 6.72592 11.6171 6.58703 11.8833 6.40926C12.0055 6.33148 12.1306 6.29548 12.2586 6.30126C12.3866 6.30703 12.5004 6.33748 12.6 6.39259C12.7111 6.44814 12.7973 6.53148 12.8586 6.64259C12.92 6.7537 12.9393 6.88703 12.9166 7.04259C12.7611 8.57592 12.1084 9.84815 10.9586 10.8593C9.80884 11.8704 8.47262 12.3759 6.94995 12.3759ZM6.94995 11.0426C7.92773 11.0426 8.80551 10.773 9.58328 10.2339C10.3611 9.69481 10.9277 8.99214 11.2833 8.12592C11.0611 8.18148 10.8388 8.22592 10.6166 8.25926C10.3944 8.29259 10.1722 8.30926 9.94995 8.30926C8.58328 8.30926 7.41928 7.82859 6.45795 6.86726C5.49662 5.90592 5.01617 4.74215 5.01662 3.37592C5.01662 3.1537 5.03328 2.93148 5.06662 2.70926C5.09995 2.48703 5.1444 2.26481 5.19995 2.04259C4.33328 2.39814 3.6304 2.96481 3.09128 3.74259C2.55217 4.52037 2.28284 5.39814 2.28328 6.37592C2.28328 7.66481 2.73884 8.76481 3.64995 9.67592C4.56106 10.587 5.66106 11.0426 6.94995 11.0426Z" fill="current"/>
</svg>
