<svg width="14" height="14" viewBox="0 0 14 14" fill="none" xmlns="http://www.w3.org/2000/svg">
<path d="M7.00004 0.332031C6.12456 0.332031 5.25765 0.50447 4.44882 0.839501C3.63998 1.17453 2.90505 1.6656 2.286 2.28465C1.03575 3.5349 0.333374 5.23059 0.333374 6.9987C0.333374 9.94536 2.24671 12.4454 4.89337 13.332C5.22671 13.3854 5.33337 13.1787 5.33337 12.9987V11.872C3.48671 12.272 3.09337 10.9787 3.09337 10.9787C2.78671 10.2054 2.35337 9.9987 2.35337 9.9987C1.74671 9.58537 2.40004 9.5987 2.40004 9.5987C3.06671 9.64536 3.42004 10.2854 3.42004 10.2854C4.00004 11.2987 4.98004 10.9987 5.36004 10.8387C5.42004 10.4054 5.59337 10.112 5.78004 9.94536C4.30004 9.7787 2.74671 9.20537 2.74671 6.66536C2.74671 5.92536 3.00004 5.33203 3.43337 4.8587C3.36671 4.69203 3.13337 3.9987 3.50004 3.0987C3.50004 3.0987 4.06004 2.9187 5.33337 3.7787C5.86004 3.63203 6.43337 3.5587 7.00004 3.5587C7.56671 3.5587 8.14004 3.63203 8.66671 3.7787C9.94004 2.9187 10.5 3.0987 10.5 3.0987C10.8667 3.9987 10.6334 4.69203 10.5667 4.8587C11 5.33203 11.2534 5.92536 11.2534 6.66536C11.2534 9.21203 9.69337 9.77203 8.20671 9.9387C8.44671 10.1454 8.66671 10.552 8.66671 11.172V12.9987C8.66671 13.1787 8.77337 13.392 9.11337 13.332C11.76 12.4387 13.6667 9.94536 13.6667 6.9987C13.6667 6.12322 13.4943 5.25631 13.1592 4.44747C12.8242 3.63864 12.3331 2.90371 11.7141 2.28465C11.095 1.6656 10.3601 1.17453 9.55126 0.839501C8.74243 0.50447 7.87552 0.332031 7.00004 0.332031Z" fill="#475569"/>
</svg>
