<svg width="16" height="15" viewBox="0 0 16 15" fill="current" xmlns="http://www.w3.org/2000/svg">
<path d="M7.83333 9.33333C8.38889 9.33333 8.86111 9.13889 9.25 8.75C9.63889 8.36111 9.83333 7.88889 9.83333 7.33333C9.83333 6.77778 9.63889 6.30556 9.25 5.91667C8.86111 5.52778 8.38889 5.33333 7.83333 5.33333C7.27778 5.33333 6.80556 5.52778 6.41667 5.91667C6.02778 6.30556 5.83333 6.77778 5.83333 7.33333C5.83333 7.88889 6.02778 8.36111 6.41667 8.75C6.80556 9.13889 7.27778 9.33333 7.83333 9.33333ZM7.83333 10.6667C6.91111 10.6667 6.12511 10.3416 5.47533 9.69133C4.82556 9.04111 4.50044 8.25511 4.5 7.33333C4.5 6.41111 4.82511 5.62511 5.47533 4.97533C6.12556 4.32556 6.91156 4.00044 7.83333 4C8.75556 4 9.54178 4.32511 10.192 4.97533C10.8422 5.62556 11.1671 6.41156 11.1667 7.33333C11.1667 8.25556 10.8416 9.04178 10.1913 9.692C9.54111 10.3422 8.75511 10.6671 7.83333 10.6667ZM1.16667 8C0.977778 8 0.819556 7.936 0.692 7.808C0.564444 7.68 0.500444 7.52178 0.5 7.33333C0.5 7.14444 0.564 6.98622 0.692 6.85867C0.82 6.73111 0.978222 6.66711 1.16667 6.66667H2.5C2.68889 6.66667 2.84733 6.73067 2.97533 6.85867C3.10333 6.98667 3.16711 7.14489 3.16667 7.33333C3.16667 7.52222 3.10267 7.68067 2.97467 7.80867C2.84667 7.93667 2.68844 8.00044 2.5 8H1.16667ZM13.1667 8C12.9778 8 12.8196 7.936 12.692 7.808C12.5644 7.68 12.5004 7.52178 12.5 7.33333C12.5 7.14444 12.564 6.98622 12.692 6.85867C12.82 6.73111 12.9782 6.66711 13.1667 6.66667H14.5C14.6889 6.66667 14.8473 6.73067 14.9753 6.85867C15.1033 6.98667 15.1671 7.14489 15.1667 7.33333C15.1667 7.52222 15.1027 7.68067 14.9747 7.80867C14.8467 7.93667 14.6884 8.00044 14.5 8H13.1667ZM7.83333 2.66667C7.64444 2.66667 7.48622 2.60267 7.35867 2.47467C7.23111 2.34667 7.16711 2.18844 7.16667 2V0.666667C7.16667 0.477778 7.23067 0.319556 7.35867 0.192C7.48667 0.0644444 7.64489 0.000444444 7.83333 0C8.02222 0 8.18067 0.064 8.30867 0.192C8.43667 0.32 8.50044 0.478222 8.5 0.666667V2C8.5 2.18889 8.436 2.34733 8.308 2.47533C8.18 2.60333 8.02178 2.66711 7.83333 2.66667ZM7.83333 14.6667C7.64444 14.6667 7.48622 14.6027 7.35867 14.4747C7.23111 14.3467 7.16711 14.1884 7.16667 14V12.6667C7.16667 12.4778 7.23067 12.3196 7.35867 12.192C7.48667 12.0644 7.64489 12.0004 7.83333 12C8.02222 12 8.18067 12.064 8.30867 12.192C8.43667 12.32 8.50044 12.4782 8.5 12.6667V14C8.5 14.1889 8.436 14.3473 8.308 14.4753C8.18 14.6033 8.02178 14.6671 7.83333 14.6667ZM3.6 4.03333L2.88333 3.33333C2.75 3.21111 2.686 3.05556 2.69133 2.86667C2.69667 2.67778 2.76067 2.51667 2.88333 2.38333C3.01667 2.25 3.17778 2.18333 3.36667 2.18333C3.55556 2.18333 3.71111 2.25 3.83333 2.38333L4.53333 3.1C4.65556 3.23333 4.71667 3.38889 4.71667 3.56667C4.71667 3.74444 4.65556 3.9 4.53333 4.03333C4.41111 4.16667 4.25844 4.23067 4.07533 4.22533C3.89222 4.22 3.73378 4.156 3.6 4.03333ZM11.8333 12.2833L11.1333 11.5667C11.0111 11.4333 10.95 11.2751 10.95 11.092C10.95 10.9089 11.0111 10.756 11.1333 10.6333C11.2556 10.5 11.4084 10.4362 11.592 10.442C11.7756 10.4478 11.9338 10.5116 12.0667 10.6333L12.7833 11.3333C12.9167 11.4556 12.9807 11.6111 12.9753 11.8C12.97 11.9889 12.906 12.15 12.7833 12.2833C12.65 12.4167 12.4889 12.4833 12.3 12.4833C12.1111 12.4833 11.9556 12.4167 11.8333 12.2833ZM11.1333 4.03333C11 3.91111 10.936 3.75844 10.9413 3.57533C10.9467 3.39222 11.0107 3.23378 11.1333 3.1L11.8333 2.38333C11.9556 2.25 12.1111 2.186 12.3 2.19133C12.4889 2.19667 12.65 2.26067 12.7833 2.38333C12.9167 2.51667 12.9833 2.67778 12.9833 2.86667C12.9833 3.05556 12.9167 3.21111 12.7833 3.33333L12.0667 4.03333C11.9333 4.15556 11.7778 4.21667 11.6 4.21667C11.4222 4.21667 11.2667 4.15556 11.1333 4.03333ZM2.88333 12.2833C2.75 12.15 2.68333 11.9889 2.68333 11.8C2.68333 11.6111 2.75 11.4556 2.88333 11.3333L3.6 10.6333C3.73333 10.5111 3.89156 10.45 4.07467 10.45C4.25778 10.45 4.41067 10.5111 4.53333 10.6333C4.66667 10.7556 4.73067 10.9084 4.72533 11.092C4.72 11.2756 4.656 11.4338 4.53333 11.5667L3.83333 12.2833C3.71111 12.4167 3.55556 12.4807 3.36667 12.4753C3.17778 12.47 3.01667 12.406 2.88333 12.2833Z" fill="current"/>
</svg>
